<svg xmlns="http://www.w3.org/2000/svg" viewBox="0 0 600 200" width="600" height="200"><style>.a{fill:#2b2b2b}</style><path fill-rule="evenodd" class="a" d="m138.8 82.6l-0.1 0.2c-0.8 1.2-0.8 1.2-6.7 1.2q-0.1 0-0.1 0h-10.2l6 10.3c1.9 3.3 1.9 8.2 0 11.5l-6 10.3h9.6c2.3 0 4.2 0.9 5.2 2.6 1 1.7 0.8 3.8-0.3 5.8l-16.5 28.6c-1.9 3.3-6.2 5.8-10 5.8h-33c-2.4 0-4.2-1-5.2-2.7-1-1.7-0.9-3.8 0.3-5.8l4.6-8h-12.1c-3.8 0-8.1-2.4-10-5.7l-5.1-9-3.9 6.8c-3.4 5.7-3.4 5.7-4.9 5.7-1.6 0-1.6 0-4.9-5.7l-16.6-28.7c-1.9-3.3-1.9-8.2 0-11.5l16.6-28.6c3.3-5.8 3.3-5.8 4.9-5.8 1.6 0 1.6 0 4.9 5.8l3.9 6.7 5.1-8.9c1.9-3.3 6.2-5.8 10-5.8h12.3l-4.7-8.1c-1.2-2-1.3-4.2-0.3-5.8 0.9-1.7 2.8-2.7 5.1-2.7h33.1c3.8 0 8 2.5 9.9 5.8l16.6 28.7c3.3 5.6 3.3 5.6 2.5 7zm-92.7 39.8l-9.6-16.6c-1.9-3.3-1.9-8.2 0-11.5l9.6-16.5-5.5-9.5q-0.1-0.2-0.2-0.4-0.2 0.2-0.3 0.4l-16.5 28.7c-1 1.6-1 4.5 0 6.1l16.5 28.7q0.1 0.2 0.3 0.4 0.1-0.2 0.2-0.4zm3.1-5.4l8-13.8c0.9-1.6 0.9-4.5 0-6.1l-8-13.9-8 13.9c-0.9 1.6-0.9 4.5 0 6.1zm10.1 17.3l19.8-34.2-19.8-34.3q-0.2 0.1-0.3 0.3l-6.7 11.7 9.6 16.5c1.8 3.3 1.8 8.3 0 11.5l-9.6 16.5 6.7 11.7q0.1 0.2 0.3 0.3zm59.4-12.9l-8.8 15.3c-1.9 3.2-6.2 5.7-10 5.7h-17.2l-6.2 10.7q-0.1 0.2-0.2 0.3 0.2 0.1 0.4 0.1h33.1c1.8 0 4.3-1.5 5.2-3.1l16.6-28.6q0.1-0.2 0.1-0.4-0.1 0-0.3 0zm-18.8 15.6c1.8 0 4.4-1.4 5.3-3l7.2-12.6h-14.1c-1.8 0-4.4 1.5-5.3 3.1l-7.3 12.5c0 0 14.2 0 14.2 0zm23.3-34.2h-39.5l-19.8 34.2q0.2 0 0.4 0h15.2l8.9-15.2c1.8-3.3 6.1-5.8 9.9-5.8h17.2l7.5-12.9q0.1-0.1 0.2-0.3zm-7.7-18.8h-17.1c-3.8 0-8.1-2.5-10-5.7l-8.7-15.2h-15.4q-0.2 0-0.4 0l19.8 34.3h39.5q-0.1-0.2-0.2-0.4zm16.4-5.4q-0.2-0.2-0.3-0.4l-16.5-28.7c-1-1.6-3.5-3-5.3-3h-33.1q-0.2 0-0.4 0 0.1 0.2 0.2 0.4l6.3 10.8h17.1c3.8 0 8.1 2.5 9.9 5.7l8.8 15.2zm-38.8-3c0.9 1.6 3.5 3 5.3 3h14l-7.2-12.5c-0.9-1.6-3.4-3-5.3-3h-14z"></path><path fill-rule="evenodd" class="a" d="m195.2 119.1v2.4h-4.4v11.8h-2.9v-11.8h-4.3v-2.4zm7.2 3.6v2.7q-0.6-0.1-1-0.1-1.6 0-2.1 1.1v6.9h-2.9v-10.5h2.7l0.1 1.2q0.8-1.4 2.3-1.4 0.5 0 0.9 0.1zm10.4 10.6h-2.8q-0.2-0.3-0.3-0.9-1 1.1-2.7 1.1-1.5 0-2.6-0.9-1-0.9-1-2.2 0-1.7 1.3-2.6 1.2-0.9 3.6-0.9h1.3v-0.6q0-0.8-0.4-1.2-0.4-0.4-1.2-0.4-0.7 0-1.1 0.3-0.4 0.3-0.4 0.9h-2.8q0-0.9 0.5-1.7 0.6-0.7 1.6-1.2 1.1-0.4 2.3-0.4 2 0 3.1 1 1.2 0.9 1.2 2.7v4.6q0 1.5 0.4 2.3zm-5.2-2q0.7 0 1.2-0.3 0.5-0.2 0.8-0.7v-1.8h-1.1q-2.1 0-2.3 1.4v0.2q0 0.5 0.4 0.9 0.4 0.3 1 0.3zm7.3-8.6h2.7v1.2q1.2-1.4 3.1-1.4 1.7 0 2.5 1 0.8 1 0.8 2.9v6.9h-2.8v-6.8q0-0.9-0.4-1.3-0.4-0.4-1.3-0.4-1.2 0-1.8 1v7.5h-2.8zm17.4 7.6q0-0.5-0.5-0.8-0.5-0.3-1.7-0.5-3.7-0.8-3.7-3.2 0-1.4 1.1-2.4 1.2-0.9 3.1-0.9 2 0 3.2 0.9 1.2 1 1.2 2.5h-2.8q0-0.6-0.4-1-0.4-0.4-1.2-0.4-0.8 0-1.1 0.3-0.4 0.3-0.4 0.8 0 0.5 0.4 0.8 0.5 0.3 1.5 0.5 1.1 0.2 1.8 0.5 2.2 0.8 2.2 2.8 0 1.4-1.2 2.3-1.3 0.9-3.2 0.9-1.3 0-2.4-0.4-1-0.5-1.6-1.3-0.6-0.9-0.6-1.8h2.7q0 0.7 0.6 1.1 0.5 0.4 1.3 0.4 0.8 0 1.3-0.3 0.4-0.3 0.4-0.8zm8.5 2.9h-2.8v-8.5h-1.6v-2h1.6v-0.9q0-1.8 1-2.8 1.1-1 2.9-1 0.6 0 1.4 0.2v2.2q-0.4-0.1-0.9-0.1-1.6 0-1.6 1.5v0.9h2.1v2h-2.1zm3.6-5.2v-0.1q0-1.6 0.6-2.8 0.6-1.3 1.7-1.9 1.1-0.7 2.7-0.7 2.1 0 3.4 1.3 1.4 1.3 1.6 3.5v0.8q0 2.4-1.4 3.9-1.3 1.4-3.6 1.4-2.3 0-3.7-1.4-1.3-1.5-1.3-4zm2.8 0.1q0 1.5 0.6 2.3 0.5 0.8 1.6 0.8 1 0 1.6-0.8 0.5-0.8 0.5-2.5 0-1.5-0.5-2.3-0.6-0.8-1.6-0.8-1.1 0-1.6 0.8-0.6 0.8-0.6 2.5zm15.3-5.5l-0.1 2.7q-0.5-0.1-1-0.1-1.6 0-2.1 1.1v6.9h-2.8v-10.5h2.7l0.1 1.2q0.8-1.4 2.3-1.4 0.5 0 0.9 0.1zm1.7 0.1h2.6l0.1 1.2q1.2-1.4 3.1-1.4 2 0 2.8 1.6 1.1-1.6 3.1-1.6 1.8 0 2.6 1 0.8 1 0.8 3v6.7h-2.8v-6.7q0-0.9-0.3-1.3-0.4-0.4-1.3-0.4-1.2 0-1.7 1.2v7.2h-2.8v-6.7q0-0.9-0.4-1.3-0.4-0.4-1.2-0.4-1.2 0-1.8 1v7.4h-2.8zm20.7 0v10.6h-2.8v-10.6zm-3-2.7q0-0.6 0.4-1 0.4-0.4 1.1-0.4 0.8 0 1.2 0.4 0.4 0.4 0.4 1 0 0.6-0.4 1.1-0.4 0.4-1.2 0.4-0.7 0-1.1-0.4-0.4-0.5-0.4-1.1zm5.6 2.7h2.7l0.1 1.3q1.1-1.5 3-1.5 1.7 0 2.5 1 0.8 1 0.8 3v6.8h-2.8v-6.8q0-0.9-0.4-1.3-0.4-0.4-1.3-0.4-1.2 0-1.7 1.1v7.4h-2.9zm11.3 5.3v-0.1q0-2.4 1.1-3.9 1.2-1.5 3.2-1.5 1.7 0 2.7 1.2l0.1-1h2.5v10.2q0 1.4-0.6 2.4-0.6 1-1.8 1.6-1.1 0.5-2.6 0.5-1.2 0-2.3-0.4-1.1-0.5-1.7-1.2l1.3-1.8q1 1.2 2.5 1.2 1.1 0 1.8-0.6 0.6-0.6 0.6-1.7v-0.5q-1 1.1-2.6 1.1-1.9 0-3-1.5-1.2-1.5-1.2-4zm2.8 0.1q0 1.4 0.6 2.3 0.5 0.8 1.6 0.8 1.2 0 1.8-1v-4.4q-0.6-1-1.8-1-1 0-1.6 0.8-0.6 0.9-0.6 2.5zm20.5 0.2h-2.6v5h-2.9v-14.3h5.5q1.6 0 2.8 0.6 1.2 0.6 1.9 1.7 0.6 1.1 0.6 2.5 0 2-1.4 3.2-1.4 1.3-3.9 1.3zm-2.6-6.9v4.5h2.6q1.2 0 1.8-0.6 0.6-0.5 0.6-1.5 0-1.1-0.6-1.7-0.6-0.7-1.7-0.7zm9.6 6.6v-0.1q0-1.6 0.6-2.8 0.6-1.3 1.7-1.9 1.2-0.7 2.7-0.7 2.1 0 3.5 1.3 1.3 1.3 1.5 3.6v0.7q0 2.4-1.4 3.9-1.3 1.5-3.6 1.5-2.3 0-3.6-1.5-1.4-1.5-1.4-4zm2.8 0.1q0 1.5 0.6 2.3 0.5 0.8 1.6 0.8 1 0 1.6-0.8 0.6-0.8 0.6-2.5 0-1.5-0.6-2.3-0.6-0.8-1.6-0.8-1.1 0-1.6 0.8-0.6 0.8-0.6 2.5zm15.1 2.2q0-0.5-0.6-0.8-0.5-0.3-1.6-0.5-3.8-0.8-3.8-3.2 0-1.4 1.2-2.4 1.2-0.9 3.1-0.9 2 0 3.2 0.9 1.2 1 1.2 2.5h-2.8q0-0.6-0.4-1-0.4-0.4-1.3-0.4-0.7 0-1.1 0.3-0.4 0.4-0.4 0.9 0 0.4 0.5 0.7 0.4 0.3 1.5 0.5 1 0.2 1.8 0.5 2.2 0.8 2.2 2.8 0 1.5-1.2 2.4-1.3 0.9-3.2 0.9-1.4 0-2.4-0.5-1-0.5-1.6-1.3-0.6-0.8-0.6-1.8h2.7q0 0.8 0.5 1.2 0.6 0.4 1.4 0.4 0.8 0 1.2-0.4 0.5-0.3 0.5-0.8zm10.6 0q0-0.5-0.5-0.8-0.5-0.3-1.6-0.5-3.8-0.8-3.8-3.2 0-1.4 1.2-2.4 1.1-0.9 3-0.9 2 0 3.3 0.9 1.2 1 1.2 2.5h-2.9q0-0.6-0.4-1-0.3-0.4-1.2-0.4-0.7 0-1.1 0.3-0.4 0.4-0.4 0.9 0 0.4 0.5 0.7 0.4 0.3 1.5 0.5 1 0.2 1.8 0.5 2.2 0.8 2.2 2.8 0 1.5-1.3 2.4-1.2 0.9-3.2 0.9-1.3 0-2.3-0.5-1-0.5-1.6-1.3-0.6-0.8-0.6-1.8h2.7q0 0.8 0.5 1.2 0.5 0.4 1.4 0.4 0.8 0 1.2-0.4 0.4-0.3 0.4-0.8zm8-7.6v10.6h-2.8v-10.6zm-3-2.7q0-0.7 0.4-1.1 0.4-0.4 1.1-0.4 0.8 0 1.2 0.4 0.4 0.4 0.4 1.1 0 0.6-0.4 1-0.5 0.4-1.2 0.4-0.7 0-1.1-0.4-0.4-0.4-0.4-1zm15.2 7.9v0.2q0 2.5-1.1 3.9-1.1 1.5-3 1.5-1.7 0-2.8-1.4l-0.1 1.2h-2.5v-15h2.8v5.3q1-1.1 2.6-1.1 1.9 0 3 1.4 1.1 1.4 1.1 4zm-2.8 0q0-1.6-0.5-2.4-0.5-0.7-1.6-0.7-1.3 0-1.8 1.1v4.2q0.5 1.1 1.9 1.1 1.3 0 1.8-1.4 0.2-0.6 0.2-1.9zm7.9-5.2v10.6h-2.8v-10.6zm-3-2.7q0-0.7 0.4-1.1 0.4-0.4 1.2-0.4 0.7 0 1.1 0.4 0.4 0.4 0.4 1.1 0 0.6-0.4 1-0.4 0.4-1.1 0.4-0.7 0-1.2-0.4-0.4-0.4-0.4-1zm8.7-1.7v15h-2.8v-15zm5.7 4.4v10.6h-2.9v-10.6zm-3-2.7q0-0.7 0.4-1.1 0.5-0.4 1.2-0.4 0.7 0 1.2 0.4 0.4 0.4 0.4 1.1 0 0.6-0.4 1-0.5 0.4-1.2 0.4-0.7 0-1.1-0.4-0.5-0.4-0.5-1zm6.3 0.1h2.8v2.6h1.8v2.1h-1.8v5.2q0 0.6 0.2 0.9 0.3 0.2 0.9 0.2 0.5 0 0.8 0v2.1q-0.8 0.3-1.7 0.3-2.9 0-3-3v-5.7h-1.5v-2.1h1.5zm9.6 2.6v10.6h-2.9v-10.6zm-3-2.7q0-0.7 0.5-1.1 0.4-0.4 1.1-0.4 0.7 0 1.2 0.4 0.4 0.4 0.4 1.1 0 0.6-0.4 1-0.5 0.4-1.2 0.4-0.7 0-1.1-0.4-0.5-0.4-0.5-1zm10.6 13.5q-2.3 0-3.8-1.5-1.4-1.4-1.4-3.8v-0.2q0-1.6 0.6-2.9 0.6-1.2 1.7-1.9 1.2-0.7 2.6-0.7 2.2 0 3.4 1.4 1.3 1.3 1.3 3.8v1.2h-6.8q0.2 1 0.9 1.7 0.7 0.6 1.7 0.6 1.6 0 2.6-1.2l1.3 1.5q-0.6 0.9-1.7 1.4-1.1 0.6-2.4 0.6zm-0.3-8.7q-0.8 0-1.4 0.6-0.5 0.5-0.6 1.6h3.9v-0.3q0-0.9-0.5-1.4-0.5-0.5-1.4-0.5zm12.4 5.5q0-0.5-0.5-0.8-0.5-0.3-1.7-0.5-3.7-0.8-3.7-3.2 0-1.4 1.1-2.4 1.2-0.9 3.1-0.9 2 0 3.2 0.9 1.2 1 1.2 2.5h-2.8q0-0.6-0.4-1-0.4-0.4-1.2-0.4-0.7 0-1.1 0.3-0.4 0.4-0.4 0.9 0 0.4 0.4 0.7 0.5 0.3 1.5 0.5 1.1 0.2 1.8 0.5 2.2 0.8 2.2 2.8 0 1.5-1.2 2.4-1.2 0.9-3.2 0.9-1.3 0-2.4-0.5-1-0.5-1.6-1.3-0.6-0.8-0.6-1.8h2.7q0.1 0.8 0.6 1.2 0.5 0.4 1.4 0.4 0.8 0 1.2-0.4 0.4-0.3 0.4-0.8zm13.3-7.6v10.6h-2.8v-10.6zm-3-2.7q0-0.7 0.4-1.1 0.4-0.4 1.2-0.4 0.7 0 1.1 0.4 0.4 0.4 0.4 1.1 0 0.6-0.4 1-0.4 0.4-1.1 0.4-0.7 0-1.2-0.4-0.4-0.4-0.4-1zm5.6 2.7h2.7l0.1 1.2q1.1-1.4 3-1.4 1.7 0 2.5 1 0.8 1 0.9 2.9v6.9h-2.9v-6.8q0-0.9-0.3-1.3-0.4-0.4-1.3-0.4-1.2 0-1.8 1v7.5h-2.9zm12.3-2.6h2.8v2.6h1.8v2h-1.8v5.3q0 0.6 0.2 0.8 0.2 0.3 0.9 0.3 0.4 0 0.8-0.1v2.2q-0.8 0.2-1.7 0.2-3 0-3-3v-5.7h-1.6v-2h1.6zm5.8 7.9v-0.2q0-1.5 0.6-2.8 0.6-1.2 1.8-1.9 1.1-0.6 2.6-0.6 2.2 0 3.5 1.3 1.4 1.3 1.5 3.5v0.7q0 2.5-1.3 3.9-1.4 1.5-3.7 1.5-2.2 0-3.6-1.5-1.4-1.4-1.4-3.9zm2.9 0q0 1.6 0.5 2.3 0.6 0.8 1.6 0.8 1.1 0 1.6-0.7 0.6-0.8 0.6-2.6 0-1.4-0.6-2.2-0.5-0.9-1.6-0.9-1 0-1.6 0.9-0.5 0.8-0.5 2.4zm22.2 1.5q0-0.8-0.6-1.3-0.6-0.4-2.1-0.9-1.5-0.5-2.4-1-2.4-1.3-2.4-3.5 0-1.2 0.6-2.1 0.7-0.9 1.9-1.4 1.2-0.5 2.7-0.5 1.5 0 2.7 0.6 1.2 0.5 1.9 1.5 0.6 1 0.6 2.3h-2.9q0-1-0.6-1.5-0.6-0.6-1.7-0.6-1.1 0-1.7 0.5-0.6 0.5-0.6 1.2 0 0.7 0.7 1.2 0.7 0.4 2.1 0.8 2.5 0.8 3.6 1.9 1.1 1.1 1.1 2.8 0 1.8-1.3 2.9-1.4 1-3.8 1-1.6 0-3-0.6-1.3-0.6-2-1.6-0.8-1.1-0.8-2.5h3q0 2.4 2.8 2.4 1 0 1.6-0.4 0.6-0.5 0.6-1.2zm4.7-1.5v-0.2q0-1.5 0.6-2.8 0.6-1.2 1.8-1.9 1.1-0.6 2.6-0.6 2.1 0 3.5 1.3 1.3 1.3 1.5 3.5v0.7q0 2.5-1.3 3.9-1.4 1.5-3.7 1.5-2.3 0-3.6-1.5-1.4-1.4-1.4-3.9zm2.8 0q0 1.6 0.6 2.3 0.6 0.8 1.6 0.8 1 0 1.6-0.7 0.6-0.8 0.6-2.6 0-1.4-0.6-2.2-0.6-0.9-1.6-0.9-1 0-1.6 0.9-0.6 0.8-0.6 2.4zm12.3-9.8v15h-2.8v-15zm9.1 15v-1.1q-1.1 1.3-2.9 1.3-1.7 0-2.6-1-0.9-0.9-0.9-2.8v-6.9h2.8v6.8q0 1.6 1.5 1.6 1.4 0 2-1v-7.4h2.8v10.5zm5.7-13.1h2.9v2.6h1.8v2h-1.8v5.3q0 0.6 0.2 0.8 0.2 0.3 0.8 0.3 0.5 0 0.9-0.1v2.2q-0.9 0.2-1.7 0.2-3 0-3.1-3v-5.7h-1.5v-2h1.5zm9.6 2.6v10.5h-2.8v-10.5zm-3-2.8q0-0.6 0.4-1 0.4-0.4 1.2-0.4 0.7 0 1.1 0.4 0.4 0.4 0.4 1 0 0.7-0.4 1.1-0.4 0.4-1.1 0.4-0.8 0-1.2-0.4-0.4-0.4-0.4-1.1zm5.3 8.1v-0.2q0-1.5 0.6-2.8 0.6-1.2 1.7-1.9 1.1-0.6 2.6-0.6 2.2 0 3.5 1.3 1.4 1.3 1.5 3.5l0.1 0.7q0 2.5-1.4 3.9-1.3 1.5-3.6 1.5-2.3 0-3.7-1.5-1.3-1.4-1.3-3.9zm2.8 0q0 1.5 0.5 2.3 0.6 0.8 1.7 0.8 1 0 1.6-0.7 0.5-0.8 0.5-2.6 0-1.4-0.5-2.2-0.6-0.9-1.7-0.9-1 0-1.6 0.9-0.5 0.8-0.5 2.4zm9.2-5.3h2.7l0.1 1.2q1.1-1.4 3-1.4 1.7 0 2.5 0.9 0.8 1 0.9 3v6.8h-2.9v-6.7q0-0.9-0.3-1.3-0.4-0.4-1.3-0.4-1.2 0-1.8 1v7.4h-2.9zm17.4 7.7q0-0.6-0.5-0.9-0.5-0.3-1.6-0.5-3.8-0.8-3.8-3.2 0-1.4 1.2-2.3 1.1-1 3-1 2 0 3.2 1 1.2 0.9 1.2 2.4h-2.8q0-0.6-0.4-1-0.4-0.4-1.2-0.4-0.7 0-1.1 0.4-0.4 0.3-0.4 0.8 0 0.4 0.5 0.7 0.4 0.3 1.5 0.5 1 0.2 1.7 0.5 2.3 0.8 2.3 2.8 0 1.5-1.3 2.4-1.2 0.9-3.2 0.9-1.3 0-2.3-0.5-1.1-0.5-1.6-1.3-0.6-0.8-0.6-1.8h2.6q0.1 0.8 0.6 1.2 0.5 0.4 1.4 0.4 0.8 0 1.2-0.3 0.4-0.3 0.4-0.8z"></path><path fill-rule="evenodd" class="a" d="m165.7 67.5h21.2v5.9h-6.6v30h-8.1v-30h-6.5zm33.2 20.6v9.4h11.5v5.9h-19.6v-35.9h19.1v6h-11v8.7h9.4v5.9zm37.3-14.4v6.4h-8.1v-5.6q0-1.4-1.5-1.4h-2.3q-1.5 0-1.5 1.4v22q0 0.7 0.3 1.1 0.4 0.3 1.2 0.3h2.3q0.8 0 1.2-0.3 0.3-0.4 0.3-1.1v-5.5h8.1v6.2q0 6.2-7.1 6.2h-7.2q-7.2 0-7.2-6.2v-23.5q0-6.2 7.2-6.2h7.2q7.1 0 7.1 6.2zm20.5 9v-15.2h7.9v35.9h-7.9v-14.8h-7.2v14.8h-8v-35.9h8v15.2zm28.8 9.1v11.6h-8.1v-11.6l-9-24.3h8.2l4.8 16.9 4.5-16.9h8.2zm19.3-24.3h7.5q7.1 0 7.1 6.2v23.4q0 6.3-7.1 6.3h-7.5q-7.2 0-7.2-6.3v-23.4q0-6.2 7.2-6.2zm6.6 28.6v-21.2q0-1.4-1.5-1.4h-2.7q-1.5 0-1.5 1.4v21.2q0 1.4 1.5 1.4h2.7q1.5 0 1.5-1.4zm29-7.1v-21.5h7.4v35.9h-7.2l-7.9-21.5v21.5h-7.3v-35.9h7.3zm37.2 7.2v-6.5q0-0.8-0.4-1.1-0.3-0.3-1.1-0.3h-5q-6.7 0-6.7-6.3v-8.2q0-6.2 7.2-6.2h6.8q7.1 0 7.1 6.2v4.7h-8v-3.5q0-1.5-1.6-1.5h-1.9q-1.5 0-1.5 1.5v6.3q0 0.7 0.3 1 0.4 0.3 1.2 0.3h4.9q3.6 0 5.2 1.6 1.5 1.5 1.5 4.6v8.4q0 6.3-7.1 6.3h-6.8q-7.1 0-7.1-6.3v-4.6h8v3.6q0 1.4 1.5 1.4h2q1.5 0 1.5-1.4zm20.5-28.6h7.6q7.1 0 7.1 6.2v23.4q0 6.3-7.1 6.3h-7.6q-7.2 0-7.2-6.3v-23.4q0-6.2 7.2-6.2zm6.6 28.6v-21.2q0-1.5-1.5-1.5h-2.7q-1.5 0-1.5 1.5v21.2q0 1.4 1.5 1.4h2.7q1.5 0 1.5-1.4zm22-28.6v30h10.4v5.9h-18.4v-35.9zm27.8 28.6v-28.6h8v29.6q0 6.3-7.1 6.3h-7.6q-7.1 0-7.1-6.3v-29.6h8.1v28.6q0 1.4 1.4 1.4h2.7q1.6 0 1.6-1.4zm11.9-28.6h21.2v5.9h-6.6v30h-8v-30h-6.6zm25.3 35.9v-35.9h8v35.9zm21.3-35.9h7.6q7.1 0 7.1 6.2v23.4q0 6.3-7.1 6.3h-7.6q-7.1 0-7.1-6.3v-23.4q0-6.2 7.1-6.2zm6.6 28.6v-21.2q0-1.4-1.4-1.4h-2.7q-1.6 0-1.6 1.4v21.2q0 1.4 1.6 1.4h2.7q1.4 0 1.4-1.4zm29.1-7.1v-21.5h7.3v35.9h-7.2l-7.8-21.5v21.5h-7.3v-35.9h7.2zm26 7.1v-6.4q0-0.8-0.3-1.1-0.4-0.3-1.2-0.3h-5q-6.6 0-6.6-6.3v-8.2q0-6.2 7.1-6.2h6.9q7.1 0 7.1 6.2v4.7h-8.1v-3.5q0-1.5-1.5-1.5h-1.9q-1.5 0-1.5 1.5v6.3q0 0.7 0.3 1 0.3 0.3 1.2 0.3h4.8q3.6 0 5.2 1.6 1.6 1.5 1.6 4.6v8.4q0 6.3-7.1 6.3h-6.8q-7.2 0-7.2-6.3v-4.6h8.1v3.5q0 1.5 1.5 1.5h1.9q1.5 0 1.5-1.5z"></path></svg>